<svg width="1728" height="1080" viewBox="0 0 1728 1080" fill="none" xmlns="http://www.w3.org/2000/svg">
<g clip-path="url(#clip0_4006_3783)">
<rect width="1728" height="1080" fill="#3623B7"/>
<g clip-path="url(#clip1_4006_3783)">
<g opacity="0.3">
<path d="M709.821 382.942L647.11 348.251C644.677 346.904 641.612 347.781 640.265 350.209L619.832 387.04C618.485 389.468 619.366 392.527 621.8 393.874L684.51 428.565C686.944 429.911 690.009 429.035 691.356 426.607L711.789 389.775C713.136 387.348 712.255 384.288 709.821 382.942Z" stroke="#05CBE7" stroke-width="1.00285" stroke-miterlimit="10"/>
<path d="M636.585 355.784L707.856 395.294" stroke="#05CBE7" stroke-miterlimit="10"/>
<path d="M632.616 362.917L703.901 402.43" stroke="#05CBE7" stroke-miterlimit="10"/>
<path d="M677.614 411.701C677.282 412.301 677.074 412.963 677.005 413.646C676.936 414.329 677.006 415.019 677.211 415.674C675.946 415.991 674.608 415.817 673.466 415.188C672.739 414.786 672.122 414.212 671.668 413.516C671.215 412.821 670.939 412.025 670.866 411.199C670.792 410.373 670.923 409.542 671.246 408.779C671.569 408.015 672.075 407.342 672.719 406.82C673.364 406.297 674.127 405.94 674.942 405.78C675.757 405.62 676.6 405.663 677.395 405.903C678.19 406.144 678.914 406.576 679.504 407.16C680.094 407.745 680.531 408.465 680.777 409.257C680.113 409.433 679.491 409.74 678.948 410.16C678.405 410.58 677.951 411.104 677.614 411.701Z" stroke="#05CBE7" stroke-miterlimit="10"/>
<path d="M686.492 416.626C686.003 417.501 685.265 418.213 684.371 418.669C683.477 419.126 682.467 419.308 681.469 419.192C680.471 419.076 679.53 418.667 678.764 418.017C677.999 417.367 677.443 416.505 677.168 415.541C676.893 414.576 676.91 413.552 677.218 412.598C677.527 411.644 678.111 410.802 678.899 410.18C679.686 409.558 680.641 409.184 681.643 409.104C682.644 409.023 683.647 409.242 684.525 409.73C685.701 410.385 686.57 411.48 686.938 412.773C687.307 414.066 687.147 415.452 686.492 416.626Z" stroke="#05CBE7" stroke-miterlimit="10"/>
<path d="M1145.18 576.44L1093.34 547.701C1090.92 546.356 1087.86 547.228 1086.52 549.647L1069.89 579.553C1068.54 581.973 1069.42 585.025 1071.85 586.369L1123.69 615.108C1126.11 616.453 1129.17 615.581 1130.51 613.162L1147.14 583.255C1148.49 580.836 1147.61 577.784 1145.18 576.44Z" stroke="#05CBE7" stroke-miterlimit="10"/>
<path d="M1083.96 554.25L1144.59 587.856" stroke="#05CBE7" stroke-miterlimit="10"/>
<path d="M1080.58 560.328L1141.2 593.931" stroke="#05CBE7" stroke-miterlimit="10"/>
<path d="M1118.86 601.776C1118.58 602.284 1118.4 602.846 1118.34 603.426C1118.28 604.006 1118.34 604.592 1118.52 605.148C1117.84 605.313 1117.13 605.311 1116.46 605.143C1115.78 604.975 1115.16 604.645 1114.64 604.182C1114.12 603.718 1113.72 603.136 1113.47 602.485C1113.23 601.834 1113.15 601.133 1113.24 600.443C1113.32 599.754 1113.58 599.096 1113.98 598.527C1114.38 597.958 1114.91 597.494 1115.53 597.177C1116.15 596.859 1116.83 596.696 1117.53 596.703C1118.23 596.71 1118.91 596.885 1119.53 597.215C1120.5 597.751 1121.22 598.64 1121.55 599.697C1120.99 599.843 1120.45 600.102 1119.99 600.459C1119.53 600.817 1119.15 601.265 1118.86 601.776Z" stroke="#05CBE7" stroke-miterlimit="10"/>
<path d="M1126.4 606.002C1125.98 606.737 1125.35 607.332 1124.6 607.712C1123.84 608.092 1122.99 608.241 1122.15 608.139C1121.31 608.037 1120.52 607.689 1119.87 607.139C1119.23 606.589 1118.76 605.862 1118.53 605.048C1118.3 604.235 1118.32 603.372 1118.58 602.568C1118.84 601.764 1119.33 601.054 1119.99 600.529C1120.66 600.004 1121.46 599.687 1122.31 599.617C1123.15 599.547 1124 599.728 1124.74 600.136C1125.23 600.41 1125.67 600.78 1126.03 601.224C1126.38 601.668 1126.64 602.178 1126.79 602.724C1126.95 603.269 1126.99 603.84 1126.93 604.403C1126.86 604.965 1126.68 605.509 1126.4 606.002Z" stroke="#05CBE7" stroke-miterlimit="10"/>
<path d="M1089.42 404.383L1000.48 423.899L1010.69 470.091L1099.63 450.575L1089.42 404.383Z" stroke="#05CBE7" stroke-miterlimit="10"/>
<path d="M1093.98 443.032L1087.49 413.688C1086.23 413.963 1084.91 413.729 1083.83 413.037C1082.74 412.346 1081.98 411.253 1081.69 409.999L1009.8 425.772C1010.07 427.027 1009.84 428.34 1009.15 429.423C1008.45 430.505 1007.36 431.27 1006.1 431.549L1012.6 460.893C1013.22 460.756 1013.86 460.743 1014.49 460.855C1015.12 460.967 1015.72 461.201 1016.26 461.545C1016.8 461.889 1017.26 462.336 1017.63 462.859C1017.99 463.383 1018.25 463.973 1018.38 464.596L1090.27 448.806C1090.13 448.184 1090.12 447.54 1090.23 446.913C1090.34 446.286 1090.58 445.686 1090.92 445.15C1091.27 444.614 1091.71 444.15 1092.24 443.787C1092.76 443.424 1093.35 443.167 1093.98 443.032Z" stroke="#05CBE7" stroke-miterlimit="10"/>
<path d="M1055.39 448.478C1061.6 445.543 1064.25 438.136 1061.3 431.934C1058.35 425.733 1050.93 423.084 1044.72 426.02C1038.51 428.955 1035.86 436.362 1038.81 442.563C1041.75 448.765 1049.18 451.413 1055.39 448.478Z" stroke="#05CBE7" stroke-miterlimit="10"/>
<path d="M1049.23 430.925C1050.38 430.698 1051.56 430.758 1052.67 431.097L1052.62 431.333C1051.54 431.022 1050.4 430.95 1049.28 431.128L1048.83 431.2L1048.81 431.107L1048.3 431.267C1047.26 431.585 1046.51 432.086 1046.05 432.725C1045.6 433.37 1045.48 434.111 1045.64 434.832L1045.64 434.833C1045.82 435.761 1046.37 436.321 1047.1 436.635C1047.77 436.925 1048.6 437.004 1049.4 437.037L1050.14 437.196L1050.13 437.147L1050.46 437.153C1051.61 437.171 1052.69 437.21 1053.55 437.526C1054.37 437.824 1054.98 438.365 1055.25 439.452L1055.25 439.452C1055.4 440.197 1055.26 440.965 1054.76 441.646C1054.26 442.332 1053.36 442.963 1051.96 443.359L1051.51 443.487L1051.51 443.493L1051.06 443.584C1049.62 443.872 1048.13 443.685 1046.8 443.061L1046.85 442.851C1048.13 443.41 1049.55 443.581 1050.94 443.332L1051.45 443.241L1051.4 443.002L1051.45 443.267L1051.96 443.124C1053.09 442.809 1053.89 442.316 1054.37 441.675C1054.69 441.241 1054.85 440.762 1054.87 440.276L1054.98 440.299L1054.82 439.547C1054.63 438.59 1054.03 438.041 1053.27 437.749C1052.54 437.474 1051.65 437.422 1050.8 437.405L1050.17 437.391L1050.17 437.384L1049.78 437.375C1048.66 437.348 1047.63 437.29 1046.82 436.965C1046.1 436.678 1045.54 436.182 1045.27 435.228L1045.23 435.031C1045.05 434.249 1045.17 433.473 1045.64 432.795C1046.1 432.113 1046.95 431.486 1048.29 431.08L1048.73 430.946L1048.63 430.494L1048.61 430.403L1048.65 430.547L1048.76 431.019L1049.23 430.925Z" fill="#3623B7" stroke="#05CBE7"/>
<path d="M601.291 499.425L537.825 491.582L533.767 524.521L597.233 532.365L601.291 499.425Z" stroke="#05CBE7" stroke-width="1.00404" stroke-miterlimit="10"/>
<path d="M593.639 524.751L596.289 503.923C595.396 503.808 594.585 503.344 594.033 502.634C593.482 501.923 593.234 501.024 593.344 500.133L542.279 493.641C542.16 494.531 541.696 495.337 540.985 495.887C540.275 496.436 539.376 496.684 538.484 496.576L535.834 517.404C536.277 517.459 536.704 517.602 537.092 517.822C537.48 518.043 537.82 518.338 538.094 518.69C538.367 519.042 538.569 519.444 538.686 519.874C538.804 520.304 538.835 520.753 538.778 521.194L589.843 527.686C589.962 526.796 590.427 525.99 591.137 525.44C591.847 524.891 592.746 524.643 593.639 524.751Z" stroke="#05CBE7" stroke-miterlimit="10"/>
<path d="M574.701 511.768C574.486 513.475 573.768 515.079 572.639 516.377C571.509 517.676 570.019 518.611 568.356 519.063C566.694 519.516 564.934 519.466 563.299 518.92C561.664 518.374 560.227 517.357 559.171 515.997C558.114 514.636 557.486 512.994 557.364 511.278C557.243 509.562 557.634 507.849 558.488 506.356C559.343 504.863 560.622 503.656 562.164 502.889C563.706 502.122 565.442 501.829 567.152 502.047C568.288 502.19 569.384 502.555 570.378 503.121C571.372 503.687 572.245 504.443 572.946 505.346C573.648 506.249 574.164 507.281 574.465 508.383C574.766 509.485 574.846 510.636 574.701 511.768Z" stroke="#05CBE7" stroke-miterlimit="10"/>
<path d="M568.331 511.816C568.513 511.984 568.649 512.165 568.735 512.368C568.833 512.598 568.879 512.883 568.834 513.252L568.835 513.252C568.812 513.409 568.769 513.559 568.713 513.7C568.752 513.581 568.783 513.458 568.799 513.33L568.799 513.325L568.812 513.192C568.845 512.636 568.653 512.179 568.331 511.816ZM563.591 508.739C563.659 508.977 563.781 509.191 563.931 509.383C563.769 509.201 563.65 508.994 563.591 508.739Z" fill="#3623B7" stroke="#05CBE7"/>
<path d="M1142.22 435.49C1148.94 436.94 1155.56 432.679 1157.01 425.973C1158.45 419.267 1154.18 412.655 1147.46 411.204C1140.74 409.754 1134.11 414.015 1132.67 420.721C1131.22 427.427 1135.49 434.039 1142.22 435.49Z" stroke="#05CBE7" stroke-miterlimit="10"/>
<path d="M1143.58 429.461L1144.12 429.53C1145.24 429.672 1146.17 429.55 1146.88 429.178C1147.6 428.798 1148.04 428.178 1148.2 427.432C1148.4 426.493 1148.08 425.75 1147.51 425.168C1146.97 424.614 1146.2 424.188 1145.43 423.811L1144.86 423.529L1143.58 429.461ZM1144.82 423.556L1144.47 423.384C1143.46 422.895 1142.56 422.414 1141.96 421.78C1141.4 421.184 1141.1 420.448 1141.33 419.363C1141.5 418.58 1141.94 417.925 1142.64 417.501C1143.35 417.074 1144.37 416.855 1145.75 417.043L1146.21 417.106L1146.22 417.076L1146.67 417.184C1147.81 417.455 1148.86 418.006 1149.73 418.782L1149.59 418.977C1148.74 418.25 1147.74 417.717 1146.66 417.416L1146.15 417.274L1146.14 417.309L1145.68 417.25C1144.61 417.113 1143.73 417.258 1143.06 417.655C1142.38 418.057 1141.98 418.689 1141.82 419.41L1141.82 419.41C1141.6 420.299 1141.87 421.02 1142.38 421.592C1142.88 422.137 1143.6 422.553 1144.32 422.913L1144.38 422.941L1144.9 423.054L1144.87 423.201L1145.22 423.373C1146.25 423.869 1147.21 424.353 1147.86 424.997C1148.18 425.311 1148.41 425.651 1148.53 426.036C1148.66 426.419 1148.69 426.875 1148.56 427.439L1148.56 427.445L1148.56 427.453C1148.42 428.237 1147.98 428.895 1147.26 429.314C1146.53 429.737 1145.45 429.942 1144.01 429.713L1143.54 429.638L1143.07 431.789L1143.04 431.783L1143.51 429.628L1143.03 429.515C1141.61 429.179 1140.33 428.401 1139.39 427.301L1139.52 427.127C1140.46 428.175 1141.68 428.933 1143.04 429.299L1143.55 429.436L1144.82 423.556Z" fill="#3623B7" stroke="#05CBE7"/>
<path d="M1029.63 568.499C1036.5 568.373 1041.97 562.709 1041.84 555.849C1041.7 548.989 1036.02 543.53 1029.15 543.657C1022.27 543.783 1016.81 549.447 1016.94 556.307C1017.08 563.167 1022.76 568.626 1029.63 568.499Z" stroke="#05CBE7" stroke-miterlimit="10"/>
<path d="M1030.64 549.939C1031.47 549.947 1032.46 550.299 1033.56 551.191L1033.92 551.483L1033.92 551.482L1034.24 551.809C1035.07 552.638 1035.67 553.652 1036.02 554.762L1035.79 554.86C1035.45 553.8 1034.88 552.824 1034.12 552.001L1033.76 551.61L1033.39 551.993L1030.13 555.38L1030.14 555.371L1033.39 551.974L1033.76 551.581L1033.34 551.239C1032.5 550.565 1031.67 550.219 1030.89 550.197C1030.1 550.176 1029.41 550.488 1028.9 551.024L1028.89 551.034C1028.26 551.728 1028.1 552.5 1028.25 553.28C1028.39 554.023 1028.79 554.765 1029.24 555.466L1029.56 555.973L1029.55 555.993L1029.76 556.326C1030.38 557.29 1030.95 558.204 1031.17 559.09C1031.27 559.521 1031.29 559.929 1031.19 560.321C1031.11 560.662 1030.93 561.015 1030.62 561.377L1030.48 561.532C1029.92 562.114 1029.19 562.439 1028.35 562.412C1027.49 562.384 1026.47 561.994 1025.35 561.045L1025.01 560.761L1025.02 560.753L1024.67 560.407C1023.63 559.383 1022.95 558.054 1022.73 556.621L1022.94 556.544C1023.19 557.918 1023.84 559.194 1024.81 560.212L1025.17 560.589L1025.21 560.545L1025.56 560.85C1026.42 561.606 1027.27 562.035 1028.07 562.107C1028.89 562.181 1029.6 561.869 1030.13 561.277L1030.18 561.217L1030.21 561.148C1030.82 560.474 1030.92 559.709 1030.75 558.943C1030.58 558.191 1030.14 557.422 1029.67 556.695L1029.33 556.158L1029.31 556.175L1029.14 555.906C1028.54 554.974 1028.01 554.088 1027.83 553.232C1027.66 552.426 1027.78 551.641 1028.55 550.843L1028.55 550.843C1029.11 550.262 1029.82 549.932 1030.64 549.939Z" fill="#3623B7" stroke="#05CBE7"/>
<path d="M905.328 284.007C905.856 286.407 905.659 288.909 904.763 291.196C903.866 293.484 902.309 295.454 900.29 296.857C898.271 298.261 895.879 299.035 893.418 299.082C890.957 299.129 888.536 298.446 886.462 297.121C884.388 295.795 882.754 293.885 881.767 291.634C880.779 289.382 880.483 286.89 880.914 284.471C881.346 282.053 882.487 279.817 884.192 278.047C885.897 276.276 888.091 275.051 890.495 274.525C892.092 274.174 893.743 274.141 895.354 274.428C896.964 274.715 898.502 275.316 899.88 276.196C901.258 277.077 902.448 278.22 903.383 279.561C904.318 280.901 904.979 282.412 905.328 284.007Z" stroke="#05CBE7" stroke-miterlimit="10"/>
<path d="M892.258 280.253C893.402 280.026 894.582 280.087 895.693 280.426L895.641 280.664C894.561 280.354 893.424 280.283 892.31 280.457L891.785 280.54L891.803 280.624L891.407 280.746C890.371 281.064 889.617 281.565 889.164 282.202C888.707 282.847 888.59 283.589 888.754 284.309L888.754 284.31C888.952 285.209 889.505 285.754 890.226 286.06C890.911 286.351 891.751 286.431 892.576 286.462L893.222 286.487L893.22 286.477L893.49 286.482C894.634 286.5 895.711 286.542 896.576 286.861C897.395 287.163 898.018 287.709 898.285 288.802L898.287 288.811C898.496 289.603 898.372 290.384 897.883 291.065C897.387 291.755 896.485 292.384 895.072 292.779L894.616 292.907L894.658 293.097L894.614 292.903L894.137 292.998C892.697 293.285 891.207 293.099 889.886 292.475L889.931 292.265C891.205 292.822 892.619 292.997 893.999 292.758L894.513 292.67L894.402 292.159L893.314 287.163L893.23 286.778L892.837 286.769C891.721 286.742 890.691 286.68 889.875 286.354C889.153 286.065 888.596 285.568 888.331 284.619L888.282 284.424C888.111 283.634 888.234 282.859 888.695 282.186C889.161 281.506 890.006 280.883 891.361 280.477L891.804 280.343L892.258 280.253ZM896.367 287.173C895.646 286.901 894.761 286.849 893.91 286.825L893.271 286.807L893.408 287.432L894.449 292.17L894.565 292.696L895.08 292.542C896.166 292.219 896.965 291.732 897.453 291.103C897.952 290.46 898.093 289.711 897.932 288.964C897.727 288.006 897.131 287.462 896.367 287.173Z" fill="#3623B7" stroke="#05CBE7"/>
<path d="M758.23 766.913C759.023 770.518 758.728 774.277 757.381 777.714C756.034 781.15 753.696 784.11 750.662 786.219C747.628 788.327 744.035 789.49 740.338 789.561C736.64 789.631 733.003 788.605 729.888 786.613C726.772 784.622 724.317 781.753 722.834 778.37C721.35 774.988 720.905 771.243 721.554 767.61C722.203 763.976 723.916 760.618 726.479 757.958C729.041 755.299 732.337 753.458 735.949 752.668C738.348 752.144 740.827 752.097 743.245 752.529C745.663 752.961 747.973 753.864 750.042 755.187C752.111 756.51 753.899 758.226 755.304 760.238C756.709 762.25 757.703 764.518 758.23 766.913Z" stroke="#05CBE7" stroke-miterlimit="10"/>
<path d="M738.042 760.7L738.151 761.171L738.625 761.078C740.462 760.719 742.358 760.837 744.133 761.416L743.953 762.252C742.293 761.735 740.533 761.606 738.811 761.88L738.288 761.963L738.402 762.481L740.053 770.024L740.138 770.41L740.533 770.417C742.246 770.448 743.907 770.511 745.244 771.004C746.532 771.48 747.508 772.351 747.891 774.069L747.893 774.075C748.191 775.338 747.988 776.598 747.211 777.688C746.429 778.784 745.033 779.754 742.869 780.352L742.408 780.479L742.515 780.945L743.155 783.739L742.704 783.836L742.056 781.054L741.945 780.58L741.47 780.678C739.197 781.137 736.839 780.828 734.765 779.807L734.979 778.996C736.931 779.917 739.124 780.215 741.259 779.836L741.772 779.745L741.66 779.236L740.01 771.752L739.927 771.369L739.535 771.36C737.873 771.317 736.281 771.226 735.007 770.716C733.778 770.225 732.841 769.344 732.465 767.64L732.466 767.639L732.419 767.406C732.214 766.243 732.426 765.091 733.118 764.079C733.86 762.995 735.187 762.026 737.254 761.402L737.702 761.267L737.596 760.811L736.952 758.024L737.394 757.924L738.042 760.7ZM744.677 771.952C743.642 771.552 742.362 771.466 741.092 771.448L740.46 771.438L740.596 772.055L742.163 779.172L742.28 779.697L742.795 779.543C744.4 779.061 745.538 778.342 746.218 777.446C746.908 776.537 747.094 775.488 746.867 774.444L746.866 774.444C746.577 773.126 745.751 772.366 744.677 771.952ZM737.379 762.271C735.872 762.715 734.798 763.441 734.16 764.349C733.516 765.265 733.345 766.323 733.573 767.356C733.847 768.616 734.613 769.37 735.632 769.799C736.615 770.212 737.839 770.328 739.085 770.369L739.73 770.391L739.59 769.761L738.009 762.642L737.893 762.12L737.379 762.271Z" fill="#3623B7" stroke="#05CBE7"/>
<path d="M557.523 426.934C554.293 428.729 550.602 429.527 546.915 429.227C543.229 428.928 539.713 427.544 536.813 425.252C533.913 422.959 531.758 419.86 530.621 416.347C529.484 412.834 529.416 409.064 530.425 405.514C531.435 401.965 533.477 398.794 536.292 396.404C539.108 394.014 542.572 392.511 546.245 392.086C549.918 391.661 553.636 392.332 556.929 394.016C560.222 395.699 562.942 398.318 564.744 401.543C565.942 403.684 566.705 406.04 566.99 408.476C567.275 410.911 567.077 413.378 566.406 415.736C565.736 418.094 564.606 420.297 563.082 422.218C561.558 424.14 559.669 425.742 557.523 426.934Z" stroke="#05CBE7" stroke-miterlimit="10"/>
<path d="M549.365 402.525C550.485 401.908 551.733 401.738 552.981 402.133C554.237 402.531 555.546 403.518 556.739 405.309L556.989 405.686L557.39 405.473L559.966 404.102L560.19 404.501L557.718 405.879L557.294 406.115L557.516 406.546C558.371 408.202 558.787 410.046 558.727 411.902L557.863 411.994C557.874 410.263 557.493 408.548 556.743 406.981L556.514 406.503L556.049 406.761L549.282 410.514L548.934 410.707L549.043 411.088C549.509 412.728 549.929 414.332 549.842 415.75C549.799 416.448 549.634 417.084 549.299 417.647C548.966 418.208 548.449 418.724 547.665 419.163C546.538 419.784 545.264 419.955 543.997 419.529C542.724 419.101 541.4 418.052 540.227 416.13L539.977 415.72L539.558 415.955L537.064 417.344L536.835 416.937L539.304 415.573L539.735 415.335L539.503 414.901C538.411 412.854 538.025 410.51 538.397 408.23L539.249 408.201C538.926 410.316 539.256 412.486 540.207 414.415L540.44 414.888L540.9 414.631L547.562 410.897L547.903 410.705L547.798 410.328C547.356 408.726 546.983 407.18 547.108 405.819C547.221 404.592 547.74 403.51 549.082 402.688L549.362 402.526L549.365 402.525ZM547.552 411.471L541.179 415.019L540.719 415.275L541 415.721C541.892 417.14 542.9 418.043 543.959 418.453C545.032 418.868 546.105 418.756 547.054 418.242L547.35 418.082L547.343 418.017C548.318 417.369 548.739 416.44 548.821 415.388C548.908 414.279 548.623 413.017 548.277 411.774L548.107 411.163L547.552 411.471ZM553.016 403.198C551.962 402.847 550.915 402.98 550.026 403.498C548.87 404.115 548.352 405.069 548.228 406.172C548.108 407.233 548.35 408.437 548.666 409.626L548.745 409.922L549.27 410.035L549.435 409.944L555.807 406.397L556.283 406.132L555.979 405.679C555.092 404.366 554.07 403.548 553.016 403.198Z" fill="#3623B7" stroke="#05CBE7"/>
<path d="M607.639 600.586C608.884 595.765 605.975 590.845 601.142 589.599C596.31 588.352 591.383 591.251 590.139 596.073C588.894 600.895 591.803 605.814 596.635 607.06C601.468 608.307 606.395 605.408 607.639 600.586Z" stroke="#05CBE7" stroke-width="1.0008" stroke-miterlimit="10"/>
<path d="M594.591 594.08C594.429 594.619 594.497 595.156 594.738 595.629C595.035 596.212 595.591 596.484 596.163 596.579C596.343 596.608 596.532 596.62 596.724 596.621C596.501 596.639 596.288 596.643 596.086 596.62C595.531 596.556 595.058 596.31 594.704 595.642L594.705 595.643C594.454 595.163 594.397 594.637 594.579 594.111C594.583 594.101 594.587 594.09 594.591 594.08ZM602.145 596.677C602.201 596.754 602.254 596.837 602.305 596.929L602.306 596.929C602.448 597.203 602.524 597.492 602.531 597.786C602.511 597.512 602.435 597.246 602.307 596.995L602.145 596.677ZM600.844 595.968C601.108 595.993 601.352 596.058 601.576 596.178L601.563 596.236C601.318 596.099 601.046 596.021 600.761 595.991C600.178 595.931 599.528 596.063 598.922 596.218L598.602 596.3L598.601 596.297L598.681 596.277C599.464 596.07 600.204 595.907 600.844 595.968Z" fill="#3623B7" stroke="#05CBE7"/>
<path d="M841.651 832.883C842.478 834.463 842.818 836.251 842.628 838.023C842.438 839.794 841.725 841.469 840.581 842.836C839.436 844.202 837.911 845.199 836.198 845.7C834.485 846.202 832.662 846.185 830.958 845.652C829.254 845.118 827.746 844.093 826.625 842.705C825.503 841.318 824.819 839.63 824.659 837.855C824.499 836.08 824.869 834.298 825.724 832.734C826.578 831.171 827.878 829.895 829.459 829.069C831.582 827.965 834.057 827.747 836.343 828.462C838.628 829.177 840.537 830.767 841.651 832.883Z" stroke="#05CBE7" stroke-miterlimit="10"/>
<path d="M829.758 835.165C829.729 835.559 829.815 835.942 829.998 836.291C830.296 836.858 830.829 837.15 831.407 837.255C831.786 837.324 832.199 837.315 832.62 837.252C832.162 837.338 831.737 837.382 831.353 837.337C830.795 837.273 830.324 837.026 829.977 836.362L829.975 836.358L829.888 836.175C829.751 835.851 829.706 835.51 829.758 835.165ZM836.52 836.762C836.937 836.883 837.295 837.143 837.576 837.644C837.73 837.964 837.8 838.306 837.772 838.656C837.772 838.391 837.719 838.132 837.614 837.886L837.625 837.833L837.54 837.672C837.29 837.195 836.931 836.913 836.52 836.762Z" fill="#3623B7" stroke="#05CBE7"/>
<path d="M708.35 279.017C709.84 274.27 707.191 269.212 702.433 267.72C697.674 266.228 692.609 268.868 691.118 273.615C689.628 278.363 692.277 283.421 697.036 284.912C701.794 286.404 706.86 283.765 708.35 279.017Z" stroke="#05CBE7" stroke-miterlimit="10"/>
<path d="M695.852 274.455C695.83 274.834 695.915 275.203 696.093 275.541C696.389 276.106 696.918 276.4 697.491 276.515C697.779 276.573 698.087 276.586 698.404 276.567C698.062 276.616 697.742 276.635 697.446 276.601C696.888 276.537 696.417 276.29 696.07 275.626L696.069 275.625C695.875 275.255 695.797 274.858 695.852 274.455ZM702.208 275.951C702.802 276.007 703.304 276.253 703.672 276.913C703.828 277.23 703.897 277.569 703.871 277.915C703.873 277.588 703.795 277.269 703.643 276.972L703.639 276.963C703.288 276.306 702.724 276.021 702.112 275.945C702.144 275.947 702.176 275.948 702.208 275.951Z" fill="#3623B7" stroke="#05CBE7"/>
</g>
</g>
<g clip-path="url(#clip2_4006_3783)">
<g opacity="0.3">
<path d="M1323.71 349.38L1353.36 298.052C1354.75 295.651 1353.93 292.579 1351.53 291.192L1321.92 274.042C1319.53 272.654 1316.46 273.476 1315.08 275.878L1285.43 327.205C1284.04 329.607 1284.86 332.678 1287.26 334.066L1316.86 351.216C1319.26 352.603 1322.33 351.781 1323.71 349.38Z" stroke="#05CBE7" stroke-miterlimit="10"/>
<path d="M1346.98 288.553L1312.31 348.581" stroke="#05CBE7" stroke-miterlimit="10"/>
<path d="M1340.96 285.071L1306.3 345.085" stroke="#05CBE7" stroke-miterlimit="10"/>
<path d="M1298.84 322.617C1298.34 322.323 1297.78 322.136 1297.2 322.066C1296.62 321.996 1296.04 322.045 1295.48 322.21C1295.33 321.531 1295.34 320.825 1295.52 320.152C1295.7 319.479 1296.04 318.86 1296.51 318.348C1296.99 317.837 1297.57 317.448 1298.23 317.215C1298.89 316.982 1299.59 316.913 1300.28 317.013C1300.96 317.113 1301.62 317.379 1302.18 317.788C1302.74 318.197 1303.19 318.738 1303.5 319.362C1303.81 319.987 1303.96 320.677 1303.94 321.374C1303.92 322.07 1303.73 322.751 1303.39 323.359C1302.84 324.321 1301.94 325.031 1300.88 325.341C1300.74 324.772 1300.49 324.237 1300.14 323.769C1299.79 323.3 1299.35 322.908 1298.84 322.617Z" stroke="#05CBE7" stroke-miterlimit="10"/>
<path d="M1294.49 330.076C1293.76 329.646 1293.18 329.009 1292.81 328.247C1292.44 327.484 1292.31 326.63 1292.42 325.791C1292.54 324.952 1292.9 324.167 1293.46 323.533C1294.03 322.899 1294.76 322.446 1295.58 322.23C1296.4 322.013 1297.26 322.044 1298.06 322.318C1298.86 322.592 1299.56 323.097 1300.07 323.769C1300.58 324.441 1300.89 325.251 1300.94 326.096C1301 326.941 1300.8 327.783 1300.38 328.518C1300.1 329.01 1299.72 329.442 1299.27 329.787C1298.82 330.132 1298.31 330.385 1297.76 330.53C1297.21 330.675 1296.64 330.709 1296.08 330.632C1295.51 330.554 1294.97 330.365 1294.49 330.076Z" stroke="#05CBE7" stroke-miterlimit="10"/>
<path d="M1496.72 296.649L1478.78 207.375L1432.41 216.777L1450.36 306.051L1496.72 296.649Z" stroke="#05CBE7" stroke-miterlimit="10"/>
<path d="M1458 300.527L1487.45 294.553C1487.2 293.291 1487.46 291.98 1488.17 290.906C1488.88 289.833 1489.99 289.085 1491.25 288.827L1476.74 216.661C1475.48 216.915 1474.17 216.659 1473.1 215.948C1472.03 215.237 1471.29 214.13 1471.03 212.869L1441.58 218.843C1441.7 219.469 1441.7 220.114 1441.58 220.741C1441.46 221.367 1441.21 221.963 1440.86 222.495C1440.5 223.027 1440.05 223.483 1439.52 223.839C1438.99 224.194 1438.4 224.441 1437.77 224.566L1452.29 296.721C1452.92 296.594 1453.56 296.592 1454.19 296.714C1454.81 296.837 1455.41 297.082 1455.94 297.436C1456.47 297.789 1456.92 298.244 1457.28 298.775C1457.63 299.305 1457.88 299.901 1458 300.527Z" stroke="#05CBE7" stroke-miterlimit="10"/>
<path d="M1453.23 261.848C1456.06 268.11 1463.42 270.886 1469.67 268.049C1475.92 265.212 1478.7 257.836 1475.88 251.574C1473.05 245.312 1465.69 242.535 1459.44 245.372C1453.19 248.209 1450.41 255.585 1453.23 261.848Z" stroke="#05CBE7" stroke-miterlimit="10"/>
<path d="M1470.89 256.001C1471.1 257.148 1471.02 258.327 1470.66 259.432L1470.43 259.377C1470.76 258.302 1470.85 257.166 1470.69 256.048L1470.63 255.599L1470.72 255.58L1470.57 255.059C1470.27 254.017 1469.78 253.255 1469.15 252.79C1468.51 252.323 1467.77 252.192 1467.05 252.338L1467.05 252.337C1466.12 252.503 1465.55 253.043 1465.22 253.765C1464.92 254.433 1464.83 255.258 1464.78 256.064L1464.61 256.798L1464.66 256.788L1464.64 257.123C1464.61 258.268 1464.55 259.344 1464.22 260.204C1463.9 261.012 1463.35 261.621 1462.26 261.871L1462.26 261.872C1461.51 262.008 1460.75 261.852 1460.08 261.34C1459.4 260.824 1458.78 259.921 1458.41 258.511L1458.29 258.055L1458.29 258.056L1458.2 257.601C1457.94 256.157 1458.16 254.671 1458.8 253.36L1459.01 253.409C1458.43 254.68 1458.23 256.099 1458.46 257.488L1458.54 258L1458.78 257.952L1458.51 258.006L1458.65 258.518C1458.94 259.647 1459.42 260.458 1460.05 260.949C1460.48 261.281 1460.96 261.444 1461.44 261.475L1461.42 261.581L1462.17 261.44C1463.14 261.26 1463.69 260.674 1464 259.914C1464.29 259.196 1464.35 258.307 1464.39 257.452L1464.41 256.83L1464.42 256.829L1464.43 256.436C1464.48 255.319 1464.56 254.289 1464.9 253.479C1465.2 252.764 1465.7 252.216 1466.66 251.969L1466.86 251.924C1467.64 251.765 1468.42 251.9 1469.09 252.374C1469.76 252.851 1470.37 253.705 1470.76 255.058L1470.88 255.503L1471.33 255.412L1471.43 255.393L1471.28 255.423L1470.81 255.524L1470.89 256.001Z" fill="#3623B7" stroke="#05CBE7"/>
<path d="M1464.69 348.89C1463.13 355.585 1467.27 362.28 1473.95 363.845C1480.63 365.41 1487.32 361.252 1488.88 354.557C1490.45 347.863 1486.31 341.168 1479.63 339.603C1472.95 338.038 1466.26 342.196 1464.69 348.89Z" stroke="#05CBE7" stroke-miterlimit="10"/>
<path d="M1470.7 350.356L1470.62 350.897C1470.46 352.018 1470.56 352.95 1470.92 353.662C1471.29 354.388 1471.9 354.84 1472.64 355.014C1473.58 355.233 1474.33 354.927 1474.92 354.37C1475.48 353.84 1475.92 353.07 1476.31 352.31L1476.61 351.74L1470.7 350.356ZM1476.58 351.703L1476.76 351.355C1477.26 350.361 1477.76 349.464 1478.41 348.876C1479.01 348.323 1479.75 348.037 1480.83 348.29C1481.61 348.473 1482.26 348.92 1482.67 349.629C1483.09 350.344 1483.29 351.372 1483.08 352.751L1483 353.208L1483.03 353.215L1482.92 353.664C1482.63 354.798 1482.06 355.839 1481.27 356.696L1481.07 356.555C1481.82 355.718 1482.37 354.727 1482.69 353.649L1482.84 353.142L1482.8 353.134L1482.87 352.678C1483.03 351.61 1482.9 350.724 1482.51 350.048C1482.12 349.363 1481.5 348.947 1480.78 348.779L1480.78 348.78C1479.89 348.542 1479.17 348.795 1478.59 349.303C1478.03 349.786 1477.6 350.504 1477.23 351.214L1477.2 351.27L1477.08 351.793L1476.93 351.759L1476.76 352.111C1476.24 353.131 1475.74 354.083 1475.09 354.72C1474.77 355.031 1474.42 355.254 1474.04 355.372C1473.65 355.489 1473.19 355.511 1472.63 355.38L1472.63 355.379L1472.62 355.378C1471.84 355.22 1471.19 354.774 1470.78 354.042C1470.37 353.303 1470.18 352.226 1470.44 350.781L1470.52 350.315L1468.38 349.813L1468.39 349.783L1470.53 350.286L1470.65 349.811C1471.01 348.395 1471.81 347.134 1472.93 346.204L1473.1 346.347C1472.04 347.261 1471.26 348.469 1470.87 349.827L1470.72 350.331L1476.58 351.703Z" fill="#3623B7" stroke="#05CBE7"/>
<path d="M1333.69 233.982C1333.69 240.857 1339.26 246.42 1346.12 246.408C1352.98 246.396 1358.54 240.812 1358.53 233.938C1358.53 227.063 1352.96 221.5 1346.1 221.512C1339.24 221.524 1333.68 227.108 1333.69 233.982Z" stroke="#05CBE7" stroke-miterlimit="10"/>
<path d="M1352.23 235.32C1352.2 236.149 1351.83 237.137 1350.92 238.215L1350.62 238.569L1350.63 238.57L1350.29 238.888C1349.45 239.697 1348.42 240.287 1347.31 240.612L1347.21 240.386C1348.28 240.057 1349.27 239.503 1350.1 238.758L1350.5 238.405L1350.12 238.03L1346.79 234.718L1346.8 234.72L1350.14 238.028L1350.53 238.411L1350.88 237.993C1351.57 237.168 1351.93 236.343 1351.96 235.563C1352 234.773 1351.7 234.083 1351.17 233.559L1351.16 233.549C1350.48 232.904 1349.71 232.737 1348.93 232.869C1348.18 232.995 1347.43 233.388 1346.72 233.822L1346.21 234.137L1346.19 234.118L1345.85 234.327C1344.88 234.934 1343.96 235.484 1343.07 235.683C1342.63 235.78 1342.23 235.789 1341.84 235.686C1341.5 235.597 1341.15 235.416 1340.79 235.099L1340.64 234.955C1340.06 234.386 1339.75 233.652 1339.79 232.807C1339.84 231.954 1340.25 230.936 1341.21 229.832L1341.5 229.501L1341.51 229.51L1341.86 229.165C1342.91 228.143 1344.25 227.488 1345.68 227.291L1345.76 227.507C1344.38 227.731 1343.09 228.355 1342.06 229.308L1341.67 229.662L1341.72 229.705L1341.41 230.047C1340.63 230.896 1340.19 231.735 1340.1 232.531C1340.02 233.351 1340.32 234.065 1340.9 234.606L1340.96 234.661L1341.03 234.692C1341.69 235.309 1342.45 235.431 1343.22 235.272C1343.98 235.115 1344.75 234.686 1345.49 234.234L1346.03 233.901L1346.01 233.883L1346.29 233.713C1347.23 233.127 1348.12 232.618 1348.98 232.45C1349.79 232.291 1350.57 232.433 1351.36 233.212L1351.36 233.213C1351.93 233.779 1352.25 234.498 1352.23 235.32Z" fill="#3623B7" stroke="#05CBE7"/>
<path d="M1620.32 114.703C1617.91 115.189 1615.41 114.948 1613.14 114.012C1610.87 113.075 1608.93 111.484 1607.56 109.44C1606.19 107.397 1605.46 104.992 1605.46 102.53C1605.45 100.068 1606.18 97.6602 1607.54 95.6099C1608.9 93.5597 1610.84 91.9595 1613.11 91.0118C1615.38 90.064 1617.87 89.8113 1620.29 90.2854C1622.7 90.7596 1624.91 91.9394 1626.65 93.6756C1628.39 95.4119 1629.58 97.6266 1630.06 100.04C1630.38 101.643 1630.39 103.294 1630.07 104.899C1629.76 106.504 1629.13 108.032 1628.23 109.394C1627.32 110.756 1626.16 111.926 1624.8 112.837C1623.44 113.748 1621.92 114.383 1620.32 114.703Z" stroke="#05CBE7" stroke-miterlimit="10"/>
<path d="M1624.3 101.702C1624.51 102.849 1624.43 104.028 1624.07 105.133L1623.83 105.078C1624.16 104.003 1624.25 102.868 1624.1 101.75L1624.02 101.224L1623.94 101.24L1623.83 100.842C1623.53 99.8009 1623.04 99.038 1622.41 98.5743C1621.77 98.1056 1621.03 97.9757 1620.31 98.1268L1620.31 98.1266C1619.41 98.3094 1618.85 98.853 1618.53 99.5681C1618.23 100.248 1618.14 101.086 1618.09 101.911L1618.05 102.556L1618.06 102.554L1618.05 102.824C1618.02 103.967 1617.95 105.044 1617.62 105.903C1617.3 106.717 1616.75 107.33 1615.65 107.578L1615.64 107.579C1614.84 107.775 1614.07 107.636 1613.39 107.135C1612.71 106.627 1612.1 105.715 1611.73 104.295L1611.61 103.837L1611.42 103.875L1611.61 103.835L1611.53 103.356C1611.27 101.912 1611.48 100.425 1612.12 99.1149L1612.33 99.1639C1611.75 100.428 1611.56 101.839 1611.77 103.222L1611.85 103.738L1612.36 103.636L1617.38 102.636L1617.76 102.559L1617.78 102.166C1617.82 101.05 1617.9 100.022 1618.25 99.2118C1618.55 98.4953 1619.05 97.9469 1620.01 97.6988L1620.2 97.6535C1621 97.4962 1621.77 97.6323 1622.43 98.1057C1623.11 98.5838 1623.71 99.4396 1624.09 100.801L1624.22 101.247L1624.3 101.702ZM1617.31 105.688C1617.6 104.973 1617.66 104.088 1617.7 103.238L1617.73 102.599L1617.11 102.725L1612.35 103.683L1611.82 103.789L1611.97 104.307C1612.27 105.399 1612.74 106.206 1613.36 106.705C1614 107.215 1614.74 107.369 1615.49 107.222C1616.46 107.034 1617.01 106.447 1617.31 105.688Z" fill="#3623B7" stroke="#05CBE7"/>
<path d="M1072.65 41.3812C1071.06 42.181 1069.26 42.4897 1067.49 42.2682C1065.73 42.0466 1064.06 41.3048 1062.72 40.1365C1061.37 38.9681 1060.4 37.4258 1059.93 35.7044C1059.46 33.983 1059.51 32.1598 1060.07 30.4653C1060.63 28.7709 1061.69 27.2812 1063.09 26.1847C1064.5 25.0882 1066.2 24.434 1067.98 24.3049C1069.75 24.1758 1071.53 24.5776 1073.08 25.4594C1074.63 26.3412 1075.88 27.6635 1076.68 29.2591C1077.74 31.4007 1077.92 33.8796 1077.16 36.1521C1076.41 38.4245 1074.78 40.305 1072.65 41.3812Z" stroke="#05CBE7" stroke-miterlimit="10"/>
<path d="M1070.58 29.4504C1070.18 29.414 1069.8 29.4935 1069.45 29.6702C1068.87 29.9581 1068.57 30.4857 1068.46 31.0623C1068.38 31.4401 1068.38 31.8536 1068.44 32.2756C1068.36 31.8157 1068.33 31.3899 1068.38 31.0071C1068.45 30.4502 1068.71 29.9836 1069.38 29.6485L1069.38 29.6465L1069.56 29.5623C1069.89 29.4315 1070.23 29.3919 1070.58 29.4504ZM1068.86 36.1828C1068.73 36.5982 1068.47 36.9516 1067.96 37.2235C1067.64 37.3722 1067.29 37.4359 1066.95 37.4021C1067.21 37.4067 1067.47 37.3579 1067.72 37.257L1067.77 37.2695L1067.93 37.1872C1068.41 36.9456 1068.7 36.5912 1068.86 36.1828Z" fill="#3623B7" stroke="#05CBE7"/>
</g>
</g>
<g clip-path="url(#clip3_4006_3783)">
<g opacity="0.3">
<path d="M31.9529 809.452L-30.7579 774.761C-33.1916 773.414 -36.2564 774.291 -37.6032 776.719L-58.0365 813.55C-59.3833 815.978 -58.5022 819.037 -56.0684 820.384L6.64227 855.075C9.07602 856.421 12.1408 855.545 13.4876 853.117L33.9209 816.286C35.2677 813.858 34.3866 810.798 31.9529 809.452Z" stroke="#05CBE7" stroke-width="1.00285" stroke-miterlimit="10"/>
<path d="M-41.2827 782.294L29.9883 821.804" stroke="#05CBE7" stroke-miterlimit="10"/>
<path d="M-45.2524 789.427L26.0326 828.941" stroke="#05CBE7" stroke-miterlimit="10"/>
<path d="M-0.253768 838.211C-0.58643 838.812 -0.793695 839.473 -0.863071 840.156C-0.932447 840.839 -0.862489 841.529 -0.657422 842.185C-1.92206 842.501 -3.26043 842.327 -4.40243 841.698C-5.12939 841.296 -5.74655 840.722 -6.19984 840.026C-6.65312 839.331 -6.92868 838.536 -7.00235 837.71C-7.07602 836.884 -6.94555 836.052 -6.62239 835.289C-6.29923 834.525 -5.79324 833.852 -5.14877 833.33C-4.50431 832.807 -3.74106 832.45 -2.92591 832.29C-2.11077 832.131 -1.26863 832.173 -0.473314 832.414C0.322001 832.654 1.0462 833.086 1.63581 833.671C2.22542 834.255 2.66243 834.975 2.90853 835.767C2.24458 835.944 1.62275 836.25 1.07966 836.67C0.536568 837.09 0.0831905 837.614 -0.253768 838.211Z" stroke="#05CBE7" stroke-miterlimit="10"/>
<path d="M8.62352 843.136C8.135 844.011 7.39708 844.723 6.50311 845.18C5.60913 845.636 4.59926 845.818 3.60122 845.702C2.60317 845.586 1.66178 845.177 0.896119 844.527C0.130462 843.877 -0.425062 843.015 -0.700214 842.051C-0.975366 841.086 -0.957777 840.062 -0.649665 839.108C-0.341553 838.154 0.243236 837.313 1.03074 836.691C1.81825 836.069 2.77309 835.694 3.77451 835.614C4.77592 835.534 5.77892 835.752 6.65665 836.24C7.83323 836.895 8.70139 837.99 9.07022 839.283C9.43906 840.576 9.27838 841.962 8.62352 843.136Z" stroke="#05CBE7" stroke-miterlimit="10"/>
<path d="M467.317 1002.95L415.476 974.211C413.05 972.866 409.994 973.738 408.648 976.157L392.022 1006.06C390.677 1008.48 391.553 1011.53 393.978 1012.88L445.819 1041.62C448.245 1042.96 451.302 1042.09 452.647 1039.67L469.273 1009.77C470.618 1007.35 469.742 1004.29 467.317 1002.95Z" stroke="#05CBE7" stroke-miterlimit="10"/>
<path d="M406.09 980.76L466.719 1014.37" stroke="#05CBE7" stroke-miterlimit="10"/>
<path d="M402.715 986.838L463.33 1020.44" stroke="#05CBE7" stroke-miterlimit="10"/>
<path d="M440.995 1028.29C440.711 1028.79 440.533 1029.36 440.473 1029.94C440.414 1030.52 440.473 1031.1 440.648 1031.66C439.972 1031.82 439.265 1031.82 438.589 1031.65C437.913 1031.48 437.288 1031.15 436.769 1030.69C436.249 1030.23 435.849 1029.65 435.605 1028.99C435.361 1028.34 435.279 1027.64 435.367 1026.95C435.455 1026.26 435.709 1025.61 436.109 1025.04C436.508 1024.47 437.04 1024 437.66 1023.69C438.279 1023.37 438.966 1023.21 439.663 1023.21C440.359 1023.22 441.044 1023.4 441.658 1023.73C442.629 1024.26 443.355 1025.15 443.684 1026.21C443.117 1026.35 442.586 1026.61 442.124 1026.97C441.662 1027.33 441.278 1027.77 440.995 1028.29Z" stroke="#05CBE7" stroke-miterlimit="10"/>
<path d="M448.531 1032.51C448.113 1033.25 447.487 1033.84 446.731 1034.22C445.975 1034.6 445.123 1034.75 444.282 1034.65C443.442 1034.55 442.65 1034.2 442.006 1033.65C441.363 1033.1 440.896 1032.37 440.666 1031.56C440.435 1030.75 440.451 1029.88 440.711 1029.08C440.971 1028.27 441.463 1027.56 442.126 1027.04C442.789 1026.51 443.593 1026.2 444.437 1026.13C445.281 1026.06 446.127 1026.24 446.868 1026.65C447.366 1026.92 447.804 1027.29 448.157 1027.73C448.51 1028.18 448.772 1028.69 448.927 1029.23C449.081 1029.78 449.126 1030.35 449.058 1030.91C448.99 1031.48 448.811 1032.02 448.531 1032.51Z" stroke="#05CBE7" stroke-miterlimit="10"/>
<path d="M411.551 830.894L322.607 850.409L332.822 896.601L421.767 877.085L411.551 830.894Z" stroke="#05CBE7" stroke-miterlimit="10"/>
<path d="M416.11 869.542L409.618 840.198C408.361 840.473 407.045 840.239 405.96 839.547C404.874 838.856 404.107 837.763 403.827 836.509L331.927 852.282C332.203 853.537 331.97 854.85 331.278 855.933C330.586 857.016 329.492 857.78 328.236 858.059L334.728 887.403C335.351 887.266 335.996 887.253 336.624 887.365C337.253 887.477 337.853 887.711 338.391 888.055C338.929 888.4 339.394 888.846 339.758 889.37C340.123 889.893 340.38 890.483 340.516 891.106L412.404 875.316C412.266 874.694 412.253 874.05 412.364 873.423C412.476 872.796 412.711 872.197 413.055 871.66C413.399 871.124 413.846 870.661 414.37 870.297C414.895 869.934 415.486 869.677 416.11 869.542Z" stroke="#05CBE7" stroke-miterlimit="10"/>
<path d="M377.52 874.988C383.731 872.053 386.378 864.646 383.431 858.444C380.485 852.243 373.061 849.595 366.849 852.53C360.638 855.465 357.991 862.872 360.938 869.074C363.884 875.275 371.308 877.923 377.52 874.988Z" stroke="#05CBE7" stroke-miterlimit="10"/>
<path d="M371.363 857.435C372.507 857.208 373.687 857.268 374.799 857.608L374.748 857.843C373.667 857.532 372.529 857.461 371.414 857.639L370.966 857.71L370.946 857.617L370.427 857.777C369.391 858.095 368.637 858.596 368.184 859.235C367.728 859.88 367.61 860.621 367.769 861.343L367.768 861.344C367.95 862.271 368.5 862.832 369.228 863.145C369.902 863.435 370.727 863.514 371.534 863.547L372.271 863.706L372.26 863.658L372.596 863.663C373.741 863.681 374.818 863.72 375.683 864.037C376.497 864.335 377.116 864.876 377.385 865.962L377.386 865.962C377.535 866.707 377.392 867.475 376.892 868.156C376.389 868.842 375.496 869.473 374.093 869.869L373.639 869.997L373.64 870.004L373.187 870.095C371.748 870.382 370.258 870.195 368.936 869.571L368.982 869.361C370.262 869.92 371.685 870.091 373.07 869.842L373.58 869.751L373.528 869.512L373.586 869.777L374.096 869.634C375.22 869.319 376.022 868.826 376.501 868.185C376.826 867.751 376.981 867.272 377.003 866.786L377.11 866.809L376.955 866.057C376.758 865.1 376.163 864.551 375.397 864.26C374.674 863.985 373.785 863.932 372.929 863.915L372.307 863.901L372.305 863.894L371.912 863.885C370.794 863.858 369.764 863.8 368.948 863.475C368.227 863.188 367.671 862.692 367.407 861.738L367.358 861.541C367.186 860.759 367.307 859.983 367.769 859.306C368.234 858.623 369.077 857.996 370.424 857.59L370.866 857.456L370.767 857.004L370.747 856.913L370.779 857.057L370.888 857.529L371.363 857.435Z" fill="#3623B7" stroke="#05CBE7"/>
<path d="M464.348 862C471.069 863.45 477.69 859.189 479.137 852.483C480.584 845.777 476.309 839.165 469.588 837.715C462.867 836.264 456.246 840.525 454.799 847.231C453.352 853.937 457.627 860.55 464.348 862Z" stroke="#05CBE7" stroke-miterlimit="10"/>
<path d="M465.708 855.971L466.249 856.04C467.373 856.182 468.304 856.06 469.009 855.688C469.729 855.308 470.169 854.688 470.33 853.943C470.533 853.003 470.214 852.26 469.646 851.678C469.106 851.124 468.329 850.698 467.562 850.321L466.988 850.039L465.708 855.971ZM466.951 850.066L466.599 849.895C465.597 849.405 464.691 848.924 464.092 848.291C463.528 847.694 463.23 846.958 463.464 845.873C463.633 845.09 464.068 844.435 464.77 844.011C465.477 843.584 466.502 843.365 467.885 843.553L468.343 843.616L468.349 843.587L468.8 843.694C469.939 843.965 470.99 844.516 471.86 845.292L471.723 845.488C470.873 844.761 469.872 844.227 468.789 843.926L468.279 843.784L468.272 843.819L467.815 843.76C466.744 843.623 465.86 843.768 465.191 844.165C464.513 844.568 464.109 845.199 463.953 845.92L463.954 845.92C463.732 846.809 463.997 847.53 464.515 848.102C465.009 848.647 465.734 849.063 466.45 849.423L466.507 849.451L467.032 849.564L467 849.711L467.355 849.883C468.384 850.379 469.345 850.863 469.994 851.507C470.31 851.821 470.539 852.161 470.664 852.546C470.788 852.929 470.818 853.386 470.697 853.949L470.695 853.955L470.695 853.963C470.55 854.747 470.116 855.405 469.392 855.824C468.66 856.248 467.586 856.452 466.137 856.223L465.669 856.148L465.205 858.299L465.176 858.293L465.641 856.139L465.163 856.026C463.741 855.689 462.467 854.912 461.517 853.811L461.657 853.637C462.589 854.685 463.811 855.443 465.175 855.809L465.682 855.946L466.951 850.066Z" fill="#3623B7" stroke="#05CBE7"/>
<path d="M351.762 995.009C358.636 994.883 364.1 989.219 363.967 982.359C363.834 975.499 358.154 970.04 351.28 970.167C344.407 970.294 338.942 975.957 339.075 982.817C339.208 989.677 344.888 995.136 351.762 995.009Z" stroke="#05CBE7" stroke-miterlimit="10"/>
<path d="M352.773 976.449C353.603 976.457 354.596 976.809 355.691 977.701L356.05 977.993L356.051 977.992L356.375 978.319C357.198 979.149 357.806 980.162 358.151 981.272L357.927 981.37C357.579 980.31 357.008 979.334 356.248 978.511L355.888 978.121L355.52 978.504L352.267 981.89L352.269 981.881L355.517 978.484L355.894 978.091L355.47 977.75C354.633 977.075 353.802 976.729 353.021 976.708C352.23 976.686 351.546 976.999 351.031 977.534L351.022 977.544C350.388 978.238 350.235 979.01 350.381 979.79C350.519 980.533 350.925 981.275 351.373 981.976L351.696 982.483L351.678 982.503L351.893 982.836C352.516 983.8 353.083 984.714 353.297 985.6C353.402 986.031 353.418 986.439 353.322 986.831C353.239 987.172 353.064 987.525 352.754 987.887L352.612 988.042C352.053 988.624 351.325 988.949 350.479 988.922C349.625 988.894 348.601 988.504 347.48 987.555L347.144 987.271L347.153 987.263L346.802 986.917C345.762 985.893 345.083 984.564 344.861 983.131L345.075 983.054C345.324 984.428 345.97 985.704 346.941 986.722L347.302 987.099L347.344 987.055L347.691 987.36C348.554 988.116 349.4 988.545 350.197 988.617C351.02 988.691 351.728 988.379 352.259 987.787L352.313 987.727L352.343 987.659C352.947 986.984 353.056 986.219 352.883 985.453C352.713 984.701 352.271 983.933 351.806 983.205L351.463 982.668L351.446 982.686L351.271 982.416C350.668 981.484 350.144 980.598 349.961 979.743C349.788 978.936 349.916 978.151 350.681 977.354L350.682 977.353C351.237 976.772 351.951 976.442 352.773 976.449Z" fill="#3623B7" stroke="#05CBE7"/>
<path d="M227.46 710.517C227.988 712.917 227.791 715.419 226.894 717.707C225.998 719.994 224.441 721.964 222.422 723.368C220.403 724.771 218.011 725.545 215.55 725.592C213.089 725.639 210.668 724.956 208.594 723.631C206.52 722.305 204.886 720.396 203.899 718.144C202.911 715.893 202.614 713.4 203.046 710.982C203.478 708.563 204.618 706.327 206.324 704.557C208.029 702.787 210.223 701.561 212.627 701.035C214.224 700.684 215.875 700.651 217.486 700.938C219.096 701.225 220.634 701.826 222.012 702.706C223.39 703.587 224.58 704.731 225.515 706.071C226.45 707.411 227.111 708.922 227.46 710.517Z" stroke="#05CBE7" stroke-miterlimit="10"/>
<path d="M214.39 706.764C215.533 706.537 216.713 706.597 217.824 706.936L217.773 707.174C216.693 706.865 215.556 706.793 214.442 706.968L213.917 707.05L213.935 707.134L213.538 707.256C212.503 707.574 211.749 708.075 211.296 708.712C210.839 709.357 210.722 710.099 210.886 710.819L210.885 710.82C211.084 711.72 211.637 712.264 212.358 712.57C213.043 712.861 213.883 712.941 214.708 712.972L215.354 712.997L215.352 712.987L215.621 712.993C216.765 713.01 217.843 713.052 218.708 713.371C219.527 713.673 220.15 714.219 220.417 715.312L220.419 715.322C220.628 716.114 220.504 716.894 220.014 717.575C219.518 718.265 218.617 718.894 217.204 719.289L216.748 719.417L216.79 719.608L216.746 719.413L216.269 719.508C214.829 719.795 213.339 719.61 212.017 718.985L212.063 718.775C213.337 719.332 214.751 719.507 216.13 719.268L216.645 719.18L216.533 718.669L215.446 713.673L215.362 713.288L214.969 713.279C213.852 713.252 212.822 713.19 212.007 712.864C211.285 712.575 210.728 712.079 210.463 711.129L210.414 710.934C210.243 710.144 210.365 709.37 210.827 708.696C211.293 708.016 212.138 707.393 213.493 706.987L213.936 706.853L214.39 706.764ZM218.498 713.683C217.778 713.411 216.893 713.359 216.042 713.335L215.403 713.317L215.539 713.942L216.581 718.68L216.696 719.206L217.212 719.052C218.298 718.729 219.096 718.242 219.585 717.613C220.084 716.97 220.224 716.221 220.064 715.474C219.859 714.516 219.263 713.972 218.498 713.683Z" fill="#3623B7" stroke="#05CBE7"/>
<path d="M30.4818 705.527C31.9722 700.78 29.323 695.722 24.5647 694.23C19.8063 692.739 14.7407 695.378 13.2503 700.126C11.76 704.873 14.4092 709.931 19.1675 711.423C23.9258 712.914 28.9914 710.275 30.4818 705.527Z" stroke="#05CBE7" stroke-miterlimit="10"/>
<path d="M17.9842 700.965C17.9619 701.344 18.0472 701.714 18.2244 702.051C18.5209 702.616 19.0499 702.911 19.6227 703.025C19.9109 703.083 20.2191 703.096 20.5355 703.077C20.1942 703.127 19.8738 703.146 19.5781 703.112C19.02 703.047 18.5489 702.8 18.202 702.136L18.2013 702.135C18.0072 701.765 17.9284 701.368 17.9842 700.965ZM24.3401 702.461C24.934 702.517 25.4359 702.763 25.8038 703.423C25.9599 703.74 26.029 704.079 26.0032 704.425C26.0052 704.099 25.9272 703.779 25.7752 703.482L25.7711 703.473C25.4196 702.817 24.8562 702.531 24.2434 702.455C24.2759 702.457 24.3081 702.458 24.3401 702.461Z" fill="#3623B7" stroke="#05CBE7"/>
</g>
</g>
</g>
<defs>
<clipPath id="clip0_4006_3783">
<rect width="1728" height="1080" fill="white"/>
</clipPath>
<clipPath id="clip1_4006_3783">
<rect width="663" height="572" fill="white" transform="translate(573.654 205) rotate(12.1771)"/>
</clipPath>
<clipPath id="clip2_4006_3783">
<rect width="663" height="572" fill="white" transform="translate(1705.15 -215.529) rotate(103.185)"/>
</clipPath>
<clipPath id="clip3_4006_3783">
<rect width="663" height="572" fill="white" transform="translate(-104.214 631.51) rotate(12.1771)"/>
</clipPath>
</defs>
</svg>
