<svg width="320" height="1639" viewBox="0 0 320 1639" fill="none" xmlns="http://www.w3.org/2000/svg">
<rect width="320" height="1639" fill="#3623B7"/>
<g clip-path="url(#clip0_4036_1859)">
<g opacity="0.3">
<path d="M194.637 169.216L126.02 148.533C123.357 147.73 120.546 149.234 119.742 151.891L107.537 192.204C106.733 194.861 108.239 197.666 110.902 198.468L179.52 219.151C182.183 219.954 184.994 218.451 185.798 215.793L198.003 175.481C198.807 172.823 197.3 170.019 194.637 169.216Z" stroke="#05CBE7" stroke-width="1.00285" stroke-miterlimit="10"/>
<path d="M117.321 158.117L195.322 181.704" stroke="#05CBE7" stroke-miterlimit="10"/>
<path d="M114.945 165.927L192.961 189.515" stroke="#05CBE7" stroke-miterlimit="10"/>
<path d="M169.221 204.121C169.023 204.779 168.96 205.469 169.036 206.151C169.112 206.834 169.326 207.493 169.665 208.091C168.495 208.667 167.15 208.779 165.901 208.405C165.106 208.165 164.382 207.734 163.792 207.15C163.202 206.566 162.765 205.847 162.519 205.055C162.272 204.263 162.225 203.423 162.379 202.608C162.534 201.794 162.887 201.029 163.407 200.382C163.926 199.735 164.597 199.226 165.36 198.898C166.123 198.569 166.956 198.433 167.784 198.501C168.612 198.568 169.411 198.837 170.111 199.284C170.81 199.732 171.389 200.343 171.797 201.066C171.185 201.378 170.642 201.809 170.2 202.334C169.757 202.859 169.425 203.466 169.221 204.121Z" stroke="#05CBE7" stroke-miterlimit="10"/>
<path d="M178.938 207.063C178.645 208.022 178.074 208.873 177.296 209.508C176.519 210.143 175.57 210.534 174.57 210.631C173.57 210.728 172.563 210.527 171.678 210.053C170.792 209.579 170.067 208.854 169.595 207.969C169.122 207.084 168.924 206.079 169.023 205.082C169.123 204.084 169.518 203.138 170.156 202.364C170.795 201.59 171.649 201.022 172.611 200.733C173.573 200.443 174.599 200.445 175.561 200.737C176.849 201.13 177.928 202.016 178.562 203.202C179.195 204.389 179.33 205.777 178.938 207.063Z" stroke="#05CBE7" stroke-miterlimit="10"/>
<path d="M113.119 305.971L49.4272 311.691L52.4086 344.746L116.101 339.026L113.119 305.971Z" stroke="#05CBE7" stroke-width="1.00404" stroke-miterlimit="10"/>
<path d="M110.982 332.341L109.178 311.423C108.281 311.498 107.391 311.216 106.702 310.638C106.013 310.06 105.581 309.234 105.501 308.339L54.2154 312.765C54.287 313.659 54.0028 314.546 53.4244 315.233C52.8459 315.919 52.0197 316.351 51.1245 316.435L52.9275 337.352C53.3721 337.313 53.82 337.362 54.2457 337.496C54.6713 337.63 55.0663 337.846 55.4079 338.133C55.7496 338.419 56.0312 338.77 56.2366 339.166C56.4421 339.561 56.5673 339.993 56.6051 340.437L107.891 336.01C107.819 335.116 108.103 334.23 108.682 333.543C109.26 332.856 110.086 332.424 110.982 332.341Z" stroke="#05CBE7" stroke-miterlimit="10"/>
<path d="M89.7315 323.645C89.8808 325.359 89.5175 327.078 88.6873 328.586C87.8572 330.093 86.5977 331.321 85.068 332.114C83.5384 332.908 81.8073 333.23 80.0939 333.042C78.3804 332.853 76.7615 332.161 75.442 331.055C74.1225 329.948 73.1616 328.475 72.6809 326.823C72.2002 325.171 72.2213 323.414 72.7415 321.775C73.2617 320.135 74.2576 318.686 75.6033 317.61C76.949 316.535 78.584 315.883 80.3015 315.735C81.4415 315.635 82.59 315.761 83.6814 316.104C84.7727 316.448 85.7853 317.003 86.6613 317.738C87.5373 318.473 88.2594 319.373 88.7862 320.386C89.313 321.4 89.6343 322.508 89.7315 323.645Z" stroke="#05CBE7" stroke-miterlimit="10"/>
<path d="M83.5142 325.036C83.7275 325.162 83.8986 325.31 84.0259 325.49C84.1698 325.694 84.2753 325.963 84.3091 326.333H84.3101C84.3203 326.491 84.3104 326.646 84.2856 326.797C84.2985 326.672 84.3022 326.545 84.2915 326.417L84.2905 326.412L84.2749 326.279C84.1896 325.729 83.9054 325.322 83.5142 325.036ZM78.2319 323.028C78.3486 323.245 78.5126 323.429 78.7007 323.586C78.5039 323.442 78.343 323.264 78.2319 323.028Z" fill="#3623B7" stroke="#05CBE7"/>
<path d="M322.949 534.336C324.486 537.694 324.99 541.43 324.398 545.074C323.806 548.717 322.144 552.103 319.624 554.804C317.103 557.505 313.836 559.4 310.237 560.249C306.637 561.098 302.866 560.862 299.4 559.572C295.934 558.282 292.93 555.996 290.766 553.003C288.603 550.009 287.378 546.443 287.245 542.754C287.113 539.066 288.08 535.421 290.024 532.281C291.967 529.141 294.801 526.646 298.165 525.113C300.399 524.094 302.813 523.525 305.268 523.437C307.722 523.35 310.17 523.745 312.472 524.602C314.773 525.458 316.883 526.759 318.681 528.429C320.479 530.1 321.929 532.107 322.949 534.336Z" stroke="#05CBE7" stroke-miterlimit="10"/>
<path d="M301.906 532.522L302.112 532.959L302.555 532.768C304.275 532.03 306.153 531.745 308.011 531.937V532.792C306.279 532.637 304.532 532.882 302.906 533.513L302.412 533.705L302.633 534.187L305.838 541.212L306.002 541.571L306.39 541.495C308.071 541.164 309.708 540.875 311.118 541.075C312.478 541.268 313.616 541.914 314.353 543.512L314.356 543.518C314.914 544.69 314.981 545.964 314.451 547.193C313.919 548.43 312.758 549.673 310.769 550.714L310.345 550.935L310.548 551.368L311.763 553.964L311.343 554.154L310.122 551.571L309.914 551.131L309.47 551.327C307.346 552.256 304.976 552.45 302.733 551.89L302.771 551.052C304.873 551.541 307.08 551.37 309.086 550.548L309.569 550.351L309.352 549.878L306.16 542.91L305.998 542.553L305.614 542.627C303.979 542.935 302.404 543.182 301.051 542.953C299.747 542.732 298.645 542.069 297.918 540.482V540.481L297.823 540.263C297.378 539.169 297.342 537.999 297.805 536.864C298.302 535.647 299.394 534.42 301.283 533.375L301.693 533.148L301.493 532.724L300.276 530.136L300.687 529.945L301.906 532.522ZM310.765 542.121C309.669 541.949 308.4 542.134 307.154 542.384L306.534 542.508L306.797 543.083L309.83 549.709L310.055 550.198L310.527 549.938C311.993 549.129 312.954 548.186 313.43 547.167C313.913 546.132 313.873 545.068 313.431 544.095H313.43C312.869 542.868 311.901 542.299 310.765 542.121ZM301.589 534.197C300.21 534.949 299.313 535.885 298.88 536.908C298.444 537.938 298.5 539.009 298.941 539.97C299.475 541.144 300.382 541.72 301.469 541.924C302.517 542.121 303.738 541.976 304.965 541.754L305.6 541.638L305.33 541.052L302.282 534.427L302.059 533.941L301.589 534.197Z" fill="#3623B7" stroke="#05CBE7"/>
<path d="M55.0453 244.343C52.2664 246.779 48.8263 248.338 45.1597 248.823C41.4931 249.307 37.7648 248.697 34.4461 247.067C31.1274 245.438 28.3673 242.864 26.5148 239.669C24.6624 236.475 23.8007 232.804 24.0388 229.121C24.2769 225.438 25.604 221.909 27.8523 218.978C30.1007 216.048 33.1693 213.849 36.6703 212.658C40.1712 211.468 43.9473 211.34 47.5211 212.291C51.0949 213.242 54.3059 215.228 56.7481 218C58.3704 219.841 59.6133 221.983 60.4057 224.303C61.1981 226.624 61.5246 229.077 61.3665 231.524C61.2083 233.97 60.5687 236.361 59.4841 238.561C58.3995 240.761 56.8912 242.726 55.0453 244.343Z" stroke="#05CBE7" stroke-miterlimit="10"/>
<path d="M41.9224 222.204C42.8872 221.365 44.0703 220.935 45.3745 221.059C46.6854 221.183 48.1733 221.871 49.7173 223.37L50.0415 223.685L50.3882 223.393L52.6177 221.51L52.9204 221.852L50.7944 223.721L50.4302 224.041L50.7378 224.415C51.9229 225.853 52.718 227.568 53.0513 229.395L52.2261 229.668C51.8716 227.973 51.1377 226.377 50.0737 225.004L49.7495 224.585L49.3491 224.935L43.5259 230.031L43.2271 230.293L43.4136 230.643C44.2146 232.147 44.9642 233.627 45.1782 235.031C45.2834 235.722 45.2556 236.379 45.0474 237C44.84 237.618 44.444 238.232 43.77 238.826C42.7992 239.671 41.5901 240.107 40.2612 239.958C38.9266 239.808 37.4115 239.061 35.8599 237.431L35.5288 237.083L35.1685 237.4L33.0239 239.284L32.7144 238.935L34.8394 237.081L35.2104 236.758L34.8921 236.382C33.3929 234.612 32.5215 232.402 32.4048 230.095L33.231 229.887C33.3616 232.022 34.1416 234.073 35.478 235.759L35.8062 236.172L36.2007 235.823L41.9253 230.768L42.2183 230.509L42.0366 230.162C41.2663 228.689 40.5752 227.256 40.4106 225.9C40.2623 224.677 40.5417 223.51 41.6802 222.423L41.9194 222.206L41.9224 222.204ZM42.0366 231.331L36.5562 236.143L36.1597 236.491L36.5288 236.868C37.6998 238.066 38.8761 238.737 39.9976 238.914C41.1337 239.094 42.1589 238.758 42.978 238.055L43.2339 237.836L43.2134 237.774C44.0293 236.935 44.2451 235.938 44.104 234.893C43.955 233.79 43.41 232.617 42.8091 231.475L42.5142 230.913L42.0366 231.331ZM45.6333 222.092C44.5283 221.971 43.5332 222.322 42.7729 223.016C41.7736 223.863 41.4687 224.904 41.5796 226.009C41.6864 227.072 42.1769 228.197 42.7368 229.293L42.8765 229.565H43.4136L43.5552 229.441L49.0356 224.63L49.4448 224.27L49.0522 223.893C47.9083 222.796 46.7369 222.212 45.6333 222.092Z" fill="#3623B7" stroke="#05CBE7"/>
<path d="M140.663 403.517C140.863 398.541 136.982 394.346 131.995 394.147C127.008 393.948 122.804 397.821 122.604 402.796C122.405 407.772 126.286 411.967 131.273 412.166C136.259 412.365 140.464 408.493 140.663 403.517Z" stroke="#05CBE7" stroke-width="1.0008" stroke-miterlimit="10"/>
<path d="M126.536 399.91C126.492 400.471 126.671 400.981 127.007 401.392C127.42 401.9 128.02 402.048 128.599 402.02C128.782 402.011 128.969 401.983 129.157 401.943C128.943 402.008 128.735 402.057 128.533 402.077C127.977 402.131 127.463 401.991 126.976 401.413H126.977C126.63 400.997 126.463 400.495 126.531 399.942C126.532 399.932 126.534 399.921 126.536 399.91ZM134.468 400.855C134.539 400.918 134.608 400.988 134.677 401.067H134.678C134.875 401.305 135.01 401.571 135.079 401.857C135.002 401.594 134.871 401.35 134.693 401.132L134.468 400.855ZM133.047 400.436C133.31 400.405 133.562 400.417 133.806 400.487V400.547C133.537 400.464 133.256 400.445 132.97 400.476C132.387 400.541 131.78 400.806 131.22 401.086L130.925 401.233L130.924 401.231L130.998 401.194C131.719 400.827 132.408 400.512 133.047 400.436Z" fill="#3623B7" stroke="#05CBE7"/>
<path d="M171.278 67.9399C171.734 62.9848 168.077 58.5996 163.111 58.1451C158.145 57.6907 153.75 61.3392 153.295 66.2943C152.839 71.2493 156.496 75.6346 161.462 76.0891C166.428 76.5435 170.823 72.895 171.278 67.9399Z" stroke="#05CBE7" stroke-miterlimit="10"/>
<path d="M158.099 66.1167C158.157 66.4916 158.319 66.8347 158.563 67.1274C158.972 67.6171 159.551 67.7934 160.135 67.7847C160.429 67.7803 160.733 67.7282 161.039 67.6431C160.715 67.7631 160.406 67.8493 160.11 67.8784C159.551 67.9332 159.038 67.7912 158.559 67.2153L158.558 67.2144C158.29 66.8937 158.129 66.5219 158.099 66.1167ZM164.627 66.2378C165.22 66.1677 165.762 66.3025 166.261 66.8696C166.481 67.1468 166.62 67.4632 166.667 67.8071C166.601 67.4874 166.457 67.1915 166.246 66.9331L166.24 66.9253C165.758 66.3579 165.147 66.1973 164.532 66.2524C164.564 66.2475 164.596 66.2416 164.627 66.2378Z" fill="#3623B7" stroke="#05CBE7"/>
</g>
</g>
<defs>
<clipPath id="clip0_4036_1859">
<rect width="296" height="572" fill="white" transform="translate(24 24)"/>
</clipPath>
</defs>
</svg>
